$MeshFormat
4.1 0 8
$EndMeshFormat
$PhysicalNames
7
1 1 "ambient_lower"
1 2 "jet"
1 3 "ambient_upper"
1 4 "bottom"
1 5 "outflow"
1 6 "top"
2 7 "fluid"
$EndPhysicalNames
$Entities
6 6 1 0
1 0 -0.5 0 0
2 0 -0.05 0 0
3 0 0.05 0 0
4 0 0.5 0 0
5 1 -0.5 0 0
6 1 0.5 0 0
1 0 -0.5 0 0 -0.04999999999999999 0 1 1 2 1 -2
2 0 -0.05 0 0 0.05 0 1 2 2 2 -3
3 0 0.04999999999999999 0 0 0.5 0 1 3 2 3 -4
4 0 -0.5 0 1 -0.5 0 1 4 2 1 -5
5 1 -0.5 0 1 0.5 0 1 5 2 5 -6
6 0 0.5 0 1 0.5 0 1 6 2 6 -4
1 0 -0.5 0 1 0.5 0 1 7 6 4 5 6 -3 -2 -1
$EndEntities
$Nodes
13 441 1 441
0 1 0 1
1
0 -0.5 0
0 2 0 1
2
0 -0.05 0
0 3 0 1
3
0 0.05 0
0 4 0 1
4
0 0.5 0
0 5 0 1
5
1 -0.5 0
0 6 0 1
6
1 0.5 0
1 1 0 8
7
8
9
10
11
12
13
14
0 -0.4500000000000927 0
0 -0.4000000000002722 0
0 -0.3500000000004264 0
0 -0.3000000000005336 0
0 -0.2500000000005264 0
0 -0.2000000000003867 0
0 -0.1500000000002578 0
0 -0.1000000000001289 0
1 2 0 1
15
0 -1.328728793659195e-13 0
1 3 0 8
16
17
18
19
20
21
22
23
0 0.09999999999991604 0
0 0.1499999999997661 0
0 0.1999999999996082 0
0 0.2499999999994913 0
0 0.299999999999485 0
0 0.3499999999996218 0
0 0.3999999999997479 0
0 0.4499999999998739 0
1 4 0 19
24
25
26
27
28
29
30
31
32
33
34
35
36
37
38
39
40
41
42
0.0499999999998994 -0.5 0
0.09999999999981414 -0.5 0
0.1499999999997029 -0.5 0
0.1999999999995569 -0.5 0
0.2499999999994109 -0.5 0
0.299999999999265 -0.5 0
0.3499999999991191 -0.5 0
0.3999999999989731 -0.5 0
0.4499999999988272 -0.5 0
0.4999999999986921 -0.5 0
0.5499999999988131 -0.5 0
0.599999999998945 -0.5 0
0.6499999999990769 -0.5 0
0.6999999999992088 -0.5 0
0.7499999999993406 -0.5 0
0.7999999999994725 -0.5 0
0.8499999999996044 -0.5 0
0.8999999999997362 -0.5 0
0.9499999999998682 -0.5 0
1 5 0 19
43
44
45
46
47
48
49
50
51
52
53
54
55
56
57
58
59
60
61
1 -0.4500000000001386 0
1 -0.4000000000002772 0
1 -0.3500000000004159 0
1 -0.3000000000005547 0
1 -0.2500000000006933 0
1 -0.2000000000008318 0
1 -0.1500000000009704 0
1 -0.1000000000011089 0
1 -0.05000000000124744 0
1 -1.375122238300719e-12 0
1 0.04999999999875271 0
1 0.09999999999889131 0
1 0.1499999999990299 0
1 0.1999999999991684 0
1 0.249999999999307 0
1 0.2999999999994456 0
1 0.3499999999995842 0
1 0.3999999999997228 0
1 0.4499999999998613 0
1 6 0 19
62
63
64
65
66
67
68
69
70
71
72
73
74
75
76
77
78
79
80
0.9499999999997918 0.5 0
0.8999999999995836 0.5 0
0.849999999999653 0.5 0
0.8 0.5 0
0.7500000000003471 0.5 0
0.7000000000006938 0.5 0
0.6500000000010406 0.5 0
0.6000000000013874 0.5 0
0.5500000000017343 0.5 0
0.5000000000020595 0.5 0
0.450000000001873 0.5 0
0.400000000001665 0.5 0
0.3500000000014568 0.5 0
0.3000000000012487 0.5 0
0.2500000000010406 0.5 0
0.2000000000008325 0.5 0
0.1500000000006244 0.5 0
0.1000000000004162 0.5 0
0.0500000000002081 0.5 0
2 1 0 361
81
82
83
84
85
86
87
88
89
90
91
92
93
94
95
96
97
98
99
100
101
102
103
104
105
106
107
108
109
110
111
112
113
114
115
116
117
118
119
120
121
122
123
124
125
126
127
128
129
130
131
132
133
134
135
136
137
138
139
140
141
142
143
144
145
146
147
148
149
150
151
152
153
154
155
156
157
158
159
160
161
162
163
164
165
166
167
168
169
170
171
172
173
174
175
176
177
178
179
180
181
182
183
184
185
186
187
188
189
190
191
192
193
194
195
196
197
198
199
200
201
202
203
204
205
206
207
208
209
210
211
212
213
214
215
216
217
218
219
220
221
222
223
224
225
226
227
228
229
230
231
232
233
234
235
236
237
238
239
240
241
242
243
244
245
246
247
248
249
250
251
252
253
254
255
256
257
258
259
260
261
262
263
264
265
266
267
268
269
270
271
272
273
274
275
276
277
278
279
280
281
282
283
284
285
286
287
288
289
290
291
292
293
294
295
296
297
298
299
300
301
302
303
304
305
306
307
308
309
310
311
312
313
314
315
316
317
318
319
320
321
322
323
324
325
326
327
328
329
330
331
332
333
334
335
336
337
338
339
340
341
342
343
344
345
346
347
348
349
350
351
352
353
354
355
356
357
358
359
360
361
362
363
364
365
366
367
368
369
370
371
372
373
374
375
376
377
378
379
380
381
382
383
384
385
386
387
388
389
390
391
392
393
394
395
396
397
398
399
400
401
402
403
404
405
406
407
408
409
410
411
412
413
414
415
416
417
418
419
420
421
422
423
424
425
426
427
428
429
430
431
432
433
434
435
436
437
438
439
440
441
0.04999999999991483 -0.4500000000000951 0
0.09999999999984426 -0.4500000000000972 0
0.1499999999997489 -0.4500000000000997 0
0.1999999999996207 -0.4500000000001019 0
0.2499999999994924 -0.4500000000001042 0
0.2999999999993642 -0.4500000000001065 0
0.349999999999236 -0.4500000000001087 0
0.3999999999991077 -0.4500000000001111 0
0.4499999999989795 -0.4500000000001134 0
0.4999999999988605 -0.4500000000001156 0
0.5499999999989591 -0.450000000000118 0
0.5999999999990671 -0.4500000000001203 0
0.649999999999175 -0.4500000000001225 0
0.699999999999283 -0.4500000000001249 0
0.7499999999993909 -0.4500000000001272 0
0.7999999999994987 -0.4500000000001294 0
0.8499999999996068 -0.4500000000001317 0
0.8999999999997286 -0.4500000000001341 0
0.9499999999998643 -0.4500000000001363 0
0.04999999999993027 -0.4000000000002725 0
0.09999999999987434 -0.4000000000002727 0
0.1499999999997951 -0.4000000000002729 0
0.1999999999996845 -0.4000000000002731 0
0.2499999999995739 -0.4000000000002735 0
0.2999999999994634 -0.4000000000002738 0
0.3499999999993528 -0.400000000000274 0
0.3999999999992422 -0.4000000000002742 0
0.4499999999991318 -0.4000000000002745 0
0.4999999999990288 -0.4000000000002747 0
0.5499999999991052 -0.4000000000002749 0
0.5999999999991892 -0.4000000000002752 0
0.6499999999992732 -0.4000000000002755 0
0.6999999999993571 -0.4000000000002758 0
0.7499999999994411 -0.400000000000276 0
0.7999999999995253 -0.4000000000002762 0
0.8499999999996094 -0.4000000000002765 0
0.8999999999997208 -0.4000000000002767 0
0.9499999999998605 -0.4000000000002769 0
0.04999999999994571 -0.3500000000004259 0
0.09999999999990444 -0.3500000000004253 0
0.1499999999998411 -0.3500000000004248 0
0.1999999999997482 -0.3500000000004241 0
0.2499999999996553 -0.3500000000004237 0
0.2999999999995626 -0.3500000000004233 0
0.3499999999994697 -0.3500000000004226 0
0.3999999999993769 -0.3500000000004222 0
0.449999999999284 -0.3500000000004218 0
0.4999999999991972 -0.3500000000004212 0
0.5499999999992513 -0.3500000000004206 0
0.5999999999993113 -0.3500000000004201 0
0.6499999999993713 -0.3500000000004195 0
0.6999999999994315 -0.350000000000419 0
0.7499999999994915 -0.3500000000004185 0
0.7999999999995515 -0.3500000000004179 0
0.8499999999996117 -0.3500000000004175 0
0.8999999999997133 -0.350000000000417 0
0.9499999999998568 -0.3500000000004164 0
0.04999999999996114 -0.3000000000005347 0
0.09999999999993454 -0.3000000000005357 0
0.1499999999998871 -0.3000000000005367 0
0.199999999999812 -0.3000000000005378 0
0.2499999999997369 -0.3000000000005388 0
0.2999999999996618 -0.3000000000005399 0
0.3499999999995866 -0.3000000000005411 0
0.3999999999995115 -0.3000000000005421 0
0.4499999999994362 -0.3000000000005431 0
0.4999999999993655 -0.3000000000005442 0
0.5499999999993974 -0.3000000000005452 0
0.5999999999994334 -0.3000000000005462 0
0.6499999999994696 -0.3000000000005473 0
0.6999999999995059 -0.3000000000005484 0
0.7499999999995419 -0.3000000000005493 0
0.7999999999995779 -0.3000000000005504 0
0.8499999999996141 -0.3000000000005514 0
0.8999999999997058 -0.3000000000005525 0
0.9499999999998527 -0.3000000000005536 0
0.04999999999997658 -0.2500000000005348 0
0.09999999999996466 -0.2500000000005431 0
0.1499999999999333 -0.2500000000005514 0
0.1999999999998758 -0.2500000000005598 0
0.2499999999998184 -0.2500000000005681 0
0.299999999999761 -0.2500000000005764 0
0.3499999999997036 -0.2500000000005849 0
0.3999999999996461 -0.2500000000005932 0
0.4499999999995886 -0.2500000000006015 0
0.4999999999995339 -0.2500000000006098 0
0.5499999999995435 -0.2500000000006182 0
0.5999999999995556 -0.2500000000006265 0
0.6499999999995678 -0.2500000000006349 0
0.6999999999995801 -0.2500000000006433 0
0.7499999999995921 -0.2500000000006516 0
0.7999999999996044 -0.25000000000066 0
0.8499999999996165 -0.2500000000006682 0
0.8999999999996982 -0.2500000000006767 0
0.9499999999998492 -0.250000000000685 0
0.04999999999999201 -0.2000000000004089 0
0.09999999999999475 -0.2000000000004312 0
0.1499999999999793 -0.2000000000004534 0
0.1999999999999396 -0.2000000000004757 0
0.2499999999998999 -0.200000000000498 0
0.2999999999998602 -0.2000000000005202 0
0.3499999999998204 -0.2000000000005425 0
0.3999999999997806 -0.2000000000005647 0
0.4499999999997408 -0.200000000000587 0
0.4999999999997025 -0.2000000000006093 0
0.5499999999996896 -0.2000000000006315 0
0.5999999999996777 -0.2000000000006538 0
0.6499999999996662 -0.2000000000006761 0
0.6999999999996542 -0.2000000000006983 0
0.7499999999996427 -0.2000000000007206 0
0.7999999999996307 -0.2000000000007428 0
0.8499999999996191 -0.200000000000765 0
0.8999999999996906 -0.2000000000007873 0
0.9499999999998453 -0.2000000000008095 0
0.05000000000000746 -0.1500000000002935 0
0.1000000000000249 -0.1500000000003291 0
0.1500000000000254 -0.1500000000003647 0
0.2000000000000033 -0.1500000000004003 0
0.2499999999999814 -0.150000000000436 0
0.2999999999999593 -0.1500000000004716 0
0.3499999999999373 -0.1500000000005073 0
0.3999999999999152 -0.1500000000005429 0
0.4499999999998932 -0.1500000000005785 0
0.4999999999998708 -0.1500000000006141 0
0.5499999999998355 -0.1500000000006498 0
0.5999999999997998 -0.1500000000006854 0
0.6499999999997643 -0.150000000000721 0
0.6999999999997286 -0.1500000000007566 0
0.7499999999996929 -0.1500000000007923 0
0.7999999999996572 -0.1500000000008279 0
0.8499999999996213 -0.1500000000008635 0
0.8999999999996827 -0.1500000000008991 0
0.9499999999998414 -0.1500000000009348 0
0.05000000000002289 -0.1000000000001779 0
0.100000000000055 -0.1000000000002269 0
0.1500000000000715 -0.1000000000002759 0
0.2000000000000672 -0.1000000000003249 0
0.2500000000000629 -0.100000000000374 0
0.3000000000000586 -0.1000000000004229 0
0.3500000000000542 -0.1000000000004719 0
0.4000000000000499 -0.1000000000005209 0
0.4500000000000455 -0.1000000000005699 0
0.5000000000000391 -0.1000000000006189 0
0.5499999999999816 -0.1000000000006679 0
0.5999999999999219 -0.1000000000007169 0
0.6499999999998625 -0.1000000000007659 0
0.6999999999998028 -0.1000000000008149 0
0.7499999999997433 -0.1000000000008639 0
0.7999999999996834 -0.100000000000913 0
0.8499999999996239 -0.1000000000009619 0
0.8999999999996753 -0.1000000000010109 0
0.9499999999998376 -0.1000000000010599 0
0.05000000000003832 -0.0500000000000624 0
0.1000000000000851 -0.05000000000012473 0
0.1500000000001176 -0.05000000000018714 0
0.2000000000001309 -0.05000000000024947 0
0.2500000000001443 -0.05000000000031186 0
0.3000000000001577 -0.05000000000037425 0
0.350000000000171 -0.05000000000043661 0
0.4000000000001844 -0.05000000000049898 0
0.4500000000001979 -0.05000000000056136 0
0.5000000000002074 -0.05000000000062371 0
0.5500000000001277 -0.05000000000068609 0
0.6000000000000441 -0.05000000000074846 0
0.6499999999999606 -0.05000000000081084 0
0.6999999999998772 -0.05000000000087321 0
0.7499999999997935 -0.05000000000093557 0
0.7999999999997098 -0.05000000000099794 0
0.8499999999996263 -0.05000000000106034 0
0.8999999999996675 -0.05000000000112273 0
0.9499999999998339 -0.05000000000118507 0
0.05000000000005375 -1.949784084188223e-13 0
0.1000000000001151 -2.570839374717347e-13 0
0.1500000000001636 -3.191964054185349e-13 0
0.2000000000001947 -3.812949955775057e-13 0
0.2500000000002258 -4.434629746755155e-13 0
0.3000000000002568 -5.055754426222941e-13 0
0.350000000000288 -5.676879105690727e-13 0
0.4000000000003192 -6.297726229402356e-13 0
0.4500000000003502 -6.91885090887014e-13 0
0.5000000000003757 -7.539975588337859e-13 0
0.5500000000002736 -8.161100267803991e-13 0
0.6000000000001662 -8.782224947270056e-13 0
0.6500000000000588 -9.403627182492278e-13 0
0.6999999999999513 -1.002475186195834e-12 0
0.7499999999998439 -1.064587654142441e-12 0
0.7999999999997363 -1.126644610937816e-12 0
0.8499999999996287 -1.188784834460038e-12 0
0.89999999999966 -1.250897302406817e-12 0
0.9499999999998301 -1.313009770353768e-12 0
0.05000000000006918 0.04999999999993766 0
0.1000000000001453 0.04999999999987525 0
0.1500000000002097 0.0499999999998129 0
0.2000000000002585 0.04999999999975057 0
0.2500000000003073 0.04999999999968818 0
0.3000000000003561 0.0499999999996258 0
0.3500000000004048 0.04999999999956342 0
0.4000000000004537 0.0499999999995011 0
0.4500000000005024 0.04999999999943873 0
0.500000000000544 0.04999999999937636 0
0.5500000000004197 0.04999999999931398 0
0.6000000000002883 0.04999999999925166 0
0.6500000000001569 0.04999999999918925 0
0.7000000000000255 0.04999999999912691 0
0.7499999999998941 0.04999999999906453 0
0.7999999999997627 0.0499999999990022 0
0.8499999999996312 0.04999999999893978 0
0.8999999999996522 0.04999999999887747 0
0.9499999999998261 0.04999999999881508 0
0.05000000000008462 0.09999999999986482 0
0.1000000000001754 0.09999999999981356 0
0.1500000000002558 0.09999999999976231 0
0.2000000000003222 0.0999999999997111 0
0.2500000000003887 0.09999999999965986 0
0.3000000000004552 0.09999999999960862 0
0.3500000000005216 0.09999999999955737 0
0.4000000000005883 0.09999999999950616 0
0.4500000000006546 0.09999999999945494 0
0.5000000000007125 0.09999999999940368 0
0.5500000000005658 0.09999999999935244 0
0.6000000000004104 0.0999999999993012 0
0.650000000000255 0.09999999999924994 0
0.7000000000000999 0.09999999999919873 0
0.7499999999999445 0.09999999999914752 0
0.7999999999997891 0.09999999999909628 0
0.8499999999996333 0.09999999999904505 0
0.8999999999996446 0.09999999999899378 0
0.9499999999998223 0.09999999999894252 0
0.05000000000010005 0.1499999999997292 0
0.1000000000002055 0.1499999999996925 0
0.1500000000003019 0.1499999999996556 0
0.2000000000003861 0.1499999999996189 0
0.2500000000004702 0.1499999999995821 0
0.3000000000005544 0.1499999999995453 0
0.3500000000006386 0.1499999999995085 0
0.4000000000007228 0.1499999999994716 0
0.4500000000008069 0.1499999999994348 0
0.5000000000008809 0.149999999999398 0
0.5500000000007119 0.1499999999993612 0
0.6000000000005326 0.1499999999993244 0
0.6500000000003532 0.1499999999992876 0
0.700000000000174 0.1499999999992508 0
0.7499999999999949 0.149999999999214 0
0.7999999999998153 0.1499999999991771 0
0.849999999999636 0.1499999999991404 0
0.8999999999996371 0.1499999999991035 0
0.9499999999998185 0.1499999999990668 0
0.05000000000011548 0.1999999999995862 0
0.1000000000002356 0.1999999999995642 0
0.150000000000348 0.1999999999995422 0
0.2000000000004498 0.1999999999995203 0
0.2500000000005516 0.1999999999994982 0
0.3000000000006536 0.1999999999994763 0
0.3500000000007554 0.1999999999994543 0
0.4000000000008574 0.1999999999994323 0
0.4500000000009592 0.1999999999994103 0
0.5000000000010494 0.1999999999993883 0
0.550000000000858 0.1999999999993664 0
0.6000000000006547 0.1999999999993443 0
0.6500000000004515 0.1999999999993223 0
0.7000000000002484 0.1999999999993004 0
0.7500000000000451 0.1999999999992783 0
0.7999999999998417 0.1999999999992563 0
0.8499999999996386 0.1999999999992344 0
0.8999999999996293 0.1999999999992123 0
0.9499999999998148 0.1999999999991904 0
0.05000000000013091 0.2499999999994821 0
0.1000000000002657 0.2499999999994729 0
0.1500000000003941 0.2499999999994636 0
0.2000000000005136 0.2499999999994545 0
0.2500000000006331 0.2499999999994452 0
0.3000000000007528 0.249999999999436 0
0.3500000000008724 0.2499999999994269 0
0.400000000000992 0.2499999999994175 0
0.4500000000011116 0.2499999999994084 0
0.5000000000012177 0.2499999999993991 0
0.5500000000010041 0.2499999999993899 0
0.6000000000007768 0.2499999999993807 0
0.6500000000005497 0.2499999999993715 0
0.7000000000003226 0.2499999999993623 0
0.7500000000000953 0.249999999999353 0
0.7999999999998681 0.2499999999993439 0
0.8499999999996409 0.2499999999993346 0
0.8999999999996218 0.2499999999993254 0
0.949999999999811 0.2499999999993162 0
0.05000000000014636 0.299999999999483 0
0.1000000000002958 0.299999999999481 0
0.1500000000004401 0.299999999999479 0
0.2000000000005774 0.2999999999994771 0
0.2500000000007147 0.2999999999994751 0
0.3000000000008519 0.2999999999994731 0
0.3500000000009892 0.2999999999994711 0
0.4000000000011266 0.2999999999994692 0
0.4500000000012639 0.2999999999994672 0
0.500000000001386 0.2999999999994652 0
0.5500000000011502 0.2999999999994633 0
0.6000000000008989 0.2999999999994614 0
0.6500000000006481 0.2999999999994594 0
0.7000000000003967 0.2999999999994574 0
0.7500000000001459 0.2999999999994555 0
0.7999999999998946 0.2999999999994535 0
0.8499999999996432 0.2999999999994515 0
0.8999999999996142 0.2999999999994495 0
0.949999999999807 0.2999999999994475 0
0.05000000000016179 0.3499999999996201 0
0.1000000000003259 0.349999999999618 0
0.1500000000004862 0.3499999999996162 0
0.2000000000006412 0.3499999999996143 0
0.2500000000007961 0.3499999999996125 0
0.3000000000009512 0.3499999999996105 0
0.3500000000011061 0.3499999999996086 0
0.4000000000012613 0.3499999999996067 0
0.450000000001416 0.3499999999996049 0
0.5000000000015543 0.349999999999603 0
0.5500000000012961 0.3499999999996012 0
0.600000000001021 0.3499999999995992 0
0.6500000000007462 0.3499999999995975 0
0.7000000000004711 0.3499999999995956 0
0.7500000000001961 0.3499999999995937 0
0.799999999999921 0.3499999999995916 0
0.8499999999996459 0.3499999999995899 0
0.8999999999996064 0.349999999999588 0
0.9499999999998034 0.3499999999995861 0
0.05000000000017724 0.3999999999997467 0
0.100000000000356 0.3999999999997454 0
0.1500000000005323 0.3999999999997441 0
0.2000000000007049 0.3999999999997429 0
0.2500000000008776 0.3999999999997416 0
0.3000000000010504 0.3999999999997403 0
0.3500000000012231 0.3999999999997391 0
0.4000000000013959 0.3999999999997377 0
0.4500000000015684 0.3999999999997366 0
0.5000000000017226 0.3999999999997353 0
0.5500000000014422 0.3999999999997341 0
0.6000000000011432 0.3999999999997329 0
0.6500000000008443 0.3999999999997316 0
0.7000000000005453 0.3999999999997302 0
0.7500000000002462 0.3999999999997291 0
0.7999999999999472 0.3999999999997279 0
0.849999999999648 0.3999999999997266 0
0.8999999999995987 0.3999999999997253 0
0.9499999999997994 0.399999999999724 0
0.05000000000019267 0.4499999999998734 0
0.1000000000003861 0.4499999999998727 0
0.1500000000005784 0.4499999999998721 0
0.2000000000007688 0.4499999999998715 0
0.2500000000009591 0.4499999999998708 0
0.3000000000011495 0.4499999999998701 0
0.3500000000013399 0.4499999999998696 0
0.4000000000015304 0.4499999999998689 0
0.4500000000017206 0.4499999999998683 0
0.5000000000018909 0.4499999999998676 0
0.5500000000015883 0.4499999999998669 0
0.6000000000012653 0.4499999999998664 0
0.6500000000009425 0.4499999999998657 0
0.7000000000006197 0.449999999999865 0
0.7500000000002969 0.4499999999998643 0
0.7999999999999736 0.4499999999998639 0
0.8499999999996506 0.4499999999998632 0
0.8999999999995911 0.4499999999998626 0
0.9499999999997957 0.4499999999998618 0
$EndNodes
$Elements
7 480 1 480
1 1 1 9
1 1 7
2 7 8
3 8 9
4 9 10
5 10 11
6 11 12
7 12 13
8 13 14
9 14 2
1 2 1 2
10 2 15
11 15 3
1 3 1 9
12 3 16
13 16 17
14 17 18
15 18 19
16 19 20
17 20 21
18 21 22
19 22 23
20 23 4
1 4 1 20
21 1 24
22 24 25
23 25 26
24 26 27
25 27 28
26 28 29
27 29 30
28 30 31
29 31 32
30 32 33
31 33 34
32 34 35
33 35 36
34 36 37
35 37 38
36 38 39
37 39 40
38 40 41
39 41 42
40 42 5
1 5 1 20
41 5 43
42 43 44
43 44 45
44 45 46
45 46 47
46 47 48
47 48 49
48 49 50
49 50 51
50 51 52
51 52 53
52 53 54
53 54 55
54 55 56
55 56 57
56 57 58
57 58 59
58 59 60
59 60 61
60 61 6
1 6 1 20
61 6 62
62 62 63
63 63 64
64 64 65
65 65 66
66 66 67
67 67 68
68 68 69
69 69 70
70 70 71
71 71 72
72 72 73
73 73 74
74 74 75
75 75 76
76 76 77
77 77 78
78 78 79
79 79 80
80 80 4
2 1 3 400
81 1 24 81 7
82 24 25 82 81
83 25 26 83 82
84 26 27 84 83
85 27 28 85 84
86 28 29 86 85
87 29 30 87 86
88 30 31 88 87
89 31 32 89 88
90 32 33 90 89
91 33 34 91 90
92 34 35 92 91
93 35 36 93 92
94 36 37 94 93
95 37 38 95 94
96 38 39 96 95
97 39 40 97 96
98 40 41 98 97
99 41 42 99 98
100 42 5 43 99
101 7 81 100 8
102 81 82 101 100
103 82 83 102 101
104 83 84 103 102
105 84 85 104 103
106 85 86 105 104
107 86 87 106 105
108 87 88 107 106
109 88 89 108 107
110 89 90 109 108
111 90 91 110 109
112 91 92 111 110
113 92 93 112 111
114 93 94 113 112
115 94 95 114 113
116 95 96 115 114
117 96 97 116 115
118 97 98 117 116
119 98 99 118 117
120 99 43 44 118
121 8 100 119 9
122 100 101 120 119
123 101 102 121 120
124 102 103 122 121
125 103 104 123 122
126 104 105 124 123
127 105 106 125 124
128 106 107 126 125
129 107 108 127 126
130 108 109 128 127
131 109 110 129 128
132 110 111 130 129
133 111 112 131 130
134 112 113 132 131
135 113 114 133 132
136 114 115 134 133
137 115 116 135 134
138 116 117 136 135
139 117 118 137 136
140 118 44 45 137
141 9 119 138 10
142 119 120 139 138
143 120 121 140 139
144 121 122 141 140
145 122 123 142 141
146 123 124 143 142
147 124 125 144 143
148 125 126 145 144
149 126 127 146 145
150 127 128 147 146
151 128 129 148 147
152 129 130 149 148
153 130 131 150 149
154 131 132 151 150
155 132 133 152 151
156 133 134 153 152
157 134 135 154 153
158 135 136 155 154
159 136 137 156 155
160 137 45 46 156
161 10 138 157 11
162 138 139 158 157
163 139 140 159 158
164 140 141 160 159
165 141 142 161 160
166 142 143 162 161
167 143 144 163 162
168 144 145 164 163
169 145 146 165 164
170 146 147 166 165
171 147 148 167 166
172 148 149 168 167
173 149 150 169 168
174 150 151 170 169
175 151 152 171 170
176 152 153 172 171
177 153 154 173 172
178 154 155 174 173
179 155 156 175 174
180 156 46 47 175
181 11 157 176 12
182 157 158 177 176
183 158 159 178 177
184 159 160 179 178
185 160 161 180 179
186 161 162 181 180
187 162 163 182 181
188 163 164 183 182
189 164 165 184 183
190 165 166 185 184
191 166 167 186 185
192 167 168 187 186
193 168 169 188 187
194 169 170 189 188
195 170 171 190 189
196 171 172 191 190
197 172 173 192 191
198 173 174 193 192
199 174 175 194 193
200 175 47 48 194
201 12 176 195 13
202 176 177 196 195
203 177 178 197 196
204 178 179 198 197
205 179 180 199 198
206 180 181 200 199
207 181 182 201 200
208 182 183 202 201
209 183 184 203 202
210 184 185 204 203
211 185 186 205 204
212 186 187 206 205
213 187 188 207 206
214 188 189 208 207
215 189 190 209 208
216 190 191 210 209
217 191 192 211 210
218 192 193 212 211
219 193 194 213 212
220 194 48 49 213
221 13 195 214 14
222 195 196 215 214
223 196 197 216 215
224 197 198 217 216
225 198 199 218 217
226 199 200 219 218
227 200 201 220 219
228 201 202 221 220
229 202 203 222 221
230 203 204 223 222
231 204 205 224 223
232 205 206 225 224
233 206 207 226 225
234 207 208 227 226
235 208 209 228 227
236 209 210 229 228
237 210 211 230 229
238 211 212 231 230
239 212 213 232 231
240 213 49 50 232
241 14 214 233 2
242 214 215 234 233
243 215 216 235 234
244 216 217 236 235
245 217 218 237 236
246 218 219 238 237
247 219 220 239 238
248 220 221 240 239
249 221 222 241 240
250 222 223 242 241
251 223 224 243 242
252 224 225 244 243
253 225 226 245 244
254 226 227 246 245
255 227 228 247 246
256 228 229 248 247
257 229 230 249 248
258 230 231 250 249
259 231 232 251 250
260 232 50 51 251
261 2 233 252 15
262 233 234 253 252
263 234 235 254 253
264 235 236 255 254
265 236 237 256 255
266 237 238 257 256
267 238 239 258 257
268 239 240 259 258
269 240 241 260 259
270 241 242 261 260
271 242 243 262 261
272 243 244 263 262
273 244 245 264 263
274 245 246 265 264
275 246 247 266 265
276 247 248 267 266
277 248 249 268 267
278 249 250 269 268
279 250 251 270 269
280 251 51 52 270
281 15 252 271 3
282 252 253 272 271
283 253 254 273 272
284 254 255 274 273
285 255 256 275 274
286 256 257 276 275
287 257 258 277 276
288 258 259 278 277
289 259 260 279 278
290 260 261 280 279
291 261 262 281 280
292 262 263 282 281
293 263 264 283 282
294 264 265 284 283
295 265 266 285 284
296 266 267 286 285
297 267 268 287 286
298 268 269 288 287
299 269 270 289 288
300 270 52 53 289
301 3 271 290 16
302 271 272 291 290
303 272 273 292 291
304 273 274 293 292
305 274 275 294 293
306 275 276 295 294
307 276 277 296 295
308 277 278 297 296
309 278 279 298 297
310 279 280 299 298
311 280 281 300 299
312 281 282 301 300
313 282 283 302 301
314 283 284 303 302
315 284 285 304 303
316 285 286 305 304
317 286 287 306 305
318 287 288 307 306
319 288 289 308 307
320 289 53 54 308
321 16 290 309 17
322 290 291 310 309
323 291 292 311 310
324 292 293 312 311
325 293 294 313 312
326 294 295 314 313
327 295 296 315 314
328 296 297 316 315
329 297 298 317 316
330 298 299 318 317
331 299 300 319 318
332 300 301 320 319
333 301 302 321 320
334 302 303 322 321
335 303 304 323 322
336 304 305 324 323
337 305 306 325 324
338 306 307 326 325
339 307 308 327 326
340 308 54 55 327
341 17 309 328 18
342 309 310 329 328
343 310 311 330 329
344 311 312 331 330
345 312 313 332 331
346 313 314 333 332
347 314 315 334 333
348 315 316 335 334
349 316 317 336 335
350 317 318 337 336
351 318 319 338 337
352 319 320 339 338
353 320 321 340 339
354 321 322 341 340
355 322 323 342 341
356 323 324 343 342
357 324 325 344 343
358 325 326 345 344
359 326 327 346 345
360 327 55 56 346
361 18 328 347 19
362 328 329 348 347
363 329 330 349 348
364 330 331 350 349
365 331 332 351 350
366 332 333 352 351
367 333 334 353 352
368 334 335 354 353
369 335 336 355 354
370 336 337 356 355
371 337 338 357 356
372 338 339 358 357
373 339 340 359 358
374 340 341 360 359
375 341 342 361 360
376 342 343 362 361
377 343 344 363 362
378 344 345 364 363
379 345 346 365 364
380 346 56 57 365
381 19 347 366 20
382 347 348 367 366
383 348 349 368 367
384 349 350 369 368
385 350 351 370 369
386 351 352 371 370
387 352 353 372 371
388 353 354 373 372
389 354 355 374 373
390 355 356 375 374
391 356 357 376 375
392 357 358 377 376
393 358 359 378 377
394 359 360 379 378
395 360 361 380 379
396 361 362 381 380
397 362 363 382 381
398 363 364 383 382
399 364 365 384 383
400 365 57 58 384
401 20 366 385 21
402 366 367 386 385
403 367 368 387 386
404 368 369 388 387
405 369 370 389 388
406 370 371 390 389
407 371 372 391 390
408 372 373 392 391
409 373 374 393 392
410 374 375 394 393
411 375 376 395 394
412 376 377 396 395
413 377 378 397 396
414 378 379 398 397
415 379 380 399 398
416 380 381 400 399
417 381 382 401 400
418 382 383 402 401
419 383 384 403 402
420 384 58 59 403
421 21 385 404 22
422 385 386 405 404
423 386 387 406 405
424 387 388 407 406
425 388 389 408 407
426 389 390 409 408
427 390 391 410 409
428 391 392 411 410
429 392 393 412 411
430 393 394 413 412
431 394 395 414 413
432 395 396 415 414
433 396 397 416 415
434 397 398 417 416
435 398 399 418 417
436 399 400 419 418
437 400 401 420 419
438 401 402 421 420
439 402 403 422 421
440 403 59 60 422
441 22 404 423 23
442 404 405 424 423
443 405 406 425 424
444 406 407 426 425
445 407 408 427 426
446 408 409 428 427
447 409 410 429 428
448 410 411 430 429
449 411 412 431 430
450 412 413 432 431
451 413 414 433 432
452 414 415 434 433
453 415 416 435 434
454 416 417 436 435
455 417 418 437 436
456 418 419 438 437
457 419 420 439 438
458 420 421 440 439
459 421 422 441 440
460 422 60 61 441
461 23 423 80 4
462 423 424 79 80
463 424 425 78 79
464 425 426 77 78
465 426 427 76 77
466 427 428 75 76
467 428 429 74 75
468 429 430 73 74
469 430 431 72 73
470 431 432 71 72
471 432 433 70 71
472 433 434 69 70
473 434 435 68 69
474 435 436 67 68
475 436 437 66 67
476 437 438 65 66
477 438 439 64 65
478 439 440 63 64
479 440 441 62 63
480 441 61 6 62
$EndElements
